<svg id="Calque_1" data-name="Calque 1" xmlns="http://www.w3.org/2000/svg" viewBox="0 0 23 23"><defs><style>.cls-1{fill:#c989dd;}</style></defs><path class="cls-1" d="M18.69,2.76H18V2.09a.77.77,0,1,0-1.54,0v.67h-10V2.09A.77.77,0,1,0,5,2.09v.67H4.31A2.93,2.93,0,0,0,1.39,5.69V18.63a2.92,2.92,0,0,0,2.92,2.92H18.69a2.92,2.92,0,0,0,2.92-2.92V5.69A2.93,2.93,0,0,0,18.69,2.76ZM4.31,4.3H18.69a1.38,1.38,0,0,1,1.38,1.39v.67H2.93V5.69A1.38,1.38,0,0,1,4.31,4.3ZM18.69,20H4.31a1.38,1.38,0,0,1-1.38-1.38V7.89H20.07V18.63A1.38,1.38,0,0,1,18.69,20Z"/><path class="cls-1" d="M13.3,9.28a1.08,1.08,0,1,0,1.07,1.08A1.08,1.08,0,0,0,13.3,9.28Z"/><path class="cls-1" d="M16.89,9.28A1.08,1.08,0,1,0,18,10.36,1.08,1.08,0,0,0,16.89,9.28Z"/><path class="cls-1" d="M13.3,12.88A1.08,1.08,0,1,0,14.37,14,1.07,1.07,0,0,0,13.3,12.88Z"/><path class="cls-1" d="M16.89,12.88A1.08,1.08,0,1,0,18,14,1.08,1.08,0,0,0,16.89,12.88Z"/><path class="cls-1" d="M6.11,12.88A1.08,1.08,0,1,0,7.19,14,1.07,1.07,0,0,0,6.11,12.88Z"/><path class="cls-1" d="M9.7,12.88A1.08,1.08,0,1,0,10.78,14,1.08,1.08,0,0,0,9.7,12.88Z"/><path class="cls-1" d="M6.11,16.47a1.08,1.08,0,0,0,0,2.16,1.08,1.08,0,0,0,0-2.16Z"/><path class="cls-1" d="M9.7,16.47a1.08,1.08,0,1,0,1.08,1.08A1.08,1.08,0,0,0,9.7,16.47Z"/><path class="cls-1" d="M13.3,16.47a1.08,1.08,0,1,0,1.07,1.08A1.08,1.08,0,0,0,13.3,16.47Z"/></svg>