<svg id="Calque_1" data-name="Calque 1" xmlns="http://www.w3.org/2000/svg" viewBox="0 0 23 23"><defs><style>.cls-1{fill:#c989dd;}</style></defs><path class="cls-1" d="M15.41,1.26a1.91,1.91,0,0,0-.6-.4,1.86,1.86,0,0,0-.7-.14H9.88A2.7,2.7,0,0,0,7.19,3.41V5H4.85A2.75,2.75,0,0,0,3,5.82a2.69,2.69,0,0,0-.79,1.91V19.59a2.68,2.68,0,0,0,2.65,2.69h8.35a2.68,2.68,0,0,0,2.65-2.69V18H18.2a2.67,2.67,0,0,0,2.64-2.7V7.55a1.86,1.86,0,0,0-.53-1.3Zm3.45,5.57H15.28a.55.55,0,0,1-.38-.16.58.58,0,0,1-.17-.38V2.63ZM9.7,6.94l4.13,4.2H10.25A.53.53,0,0,1,9.87,11a.52.52,0,0,1-.17-.38Zm3.46,13.9H4.81a1.24,1.24,0,0,1-1.22-1.25V7.73A1.29,1.29,0,0,1,4,6.84a1.22,1.22,0,0,1,.88-.37H8.27v4.14A2,2,0,0,0,8.85,12a2,2,0,0,0,1.39.59h4.14v7A1.24,1.24,0,0,1,13.16,20.84Zm5-4.31H15.81V11.87h0a1.85,1.85,0,0,0-.53-1.29l-4.9-5a1.84,1.84,0,0,0-.59-.41A2,2,0,0,0,9.08,5H8.62V3.42A1.29,1.29,0,0,1,9,2.53a1.22,1.22,0,0,1,.88-.37H13.3V6.3a2,2,0,0,0,.58,1.38,2,2,0,0,0,1.39.59h4.14v7A1.24,1.24,0,0,1,18.2,16.53Z"/></svg>