<svg width="23" height="23" viewBox="0 0 23 23" fill="none" xmlns="http://www.w3.org/2000/svg">
<path d="M12.219 9.34375C12.219 9.15313 12.1433 8.97031 12.0085 8.83552C11.8737 8.70073 11.6909 8.625 11.5003 8.625C11.3096 8.625 11.1268 8.70073 10.992 8.83552C10.8572 8.97031 10.7815 9.15313 10.7815 9.34375V14.7962L9.13414 13.1474C9.06732 13.0805 8.98798 13.0275 8.90067 12.9914C8.81336 12.9552 8.71977 12.9366 8.62527 12.9366C8.53076 12.9366 8.43718 12.9552 8.34987 12.9914C8.26255 13.0275 8.18322 13.0805 8.11639 13.1474C8.04957 13.2142 7.99656 13.2935 7.96039 13.3808C7.92422 13.4682 7.90561 13.5617 7.90561 13.6562C7.90561 13.7508 7.92422 13.8443 7.96039 13.9317C7.99656 14.019 8.04957 14.0983 8.11639 14.1651L10.9914 17.0401C11.0582 17.1071 11.1375 17.1602 11.2248 17.1964C11.3121 17.2326 11.4057 17.2513 11.5003 17.2513C11.5948 17.2513 11.6884 17.2326 11.7757 17.1964C11.8631 17.1602 11.9424 17.1071 12.0091 17.0401L14.8841 14.1651C14.951 14.0983 15.004 14.019 15.0401 13.9317C15.0763 13.8443 15.0949 13.7508 15.0949 13.6562C15.0949 13.5617 15.0763 13.4682 15.0401 13.3808C15.004 13.2935 14.951 13.2142 14.8841 13.1474C14.8173 13.0805 14.738 13.0275 14.6507 12.9914C14.5634 12.9552 14.4698 12.9366 14.3753 12.9366C14.2808 12.9366 14.1872 12.9552 14.0999 12.9914C14.0126 13.0275 13.9332 13.0805 13.8664 13.1474L12.219 14.7962V9.34375Z" fill="#9E58FF"/>
<path d="M20.125 20.125V6.46875L13.6562 0H5.75C4.9875 0 4.25623 0.302901 3.71707 0.842068C3.1779 1.38124 2.875 2.1125 2.875 2.875V20.125C2.875 20.8875 3.1779 21.6188 3.71707 22.1579C4.25623 22.6971 4.9875 23 5.75 23H17.25C18.0125 23 18.7438 22.6971 19.2829 22.1579C19.8221 21.6188 20.125 20.8875 20.125 20.125ZM13.6562 4.3125C13.6562 4.88437 13.8834 5.43282 14.2878 5.8372C14.6922 6.24157 15.2406 6.46875 15.8125 6.46875H18.6875V20.125C18.6875 20.5062 18.536 20.8719 18.2665 21.1415C17.9969 21.411 17.6312 21.5625 17.25 21.5625H5.75C5.36875 21.5625 5.00312 21.411 4.73353 21.1415C4.46395 20.8719 4.3125 20.5062 4.3125 20.125V2.875C4.3125 2.49375 4.46395 2.12812 4.73353 1.85853C5.00312 1.58895 5.36875 1.4375 5.75 1.4375H13.6562V4.3125Z" fill="#9E58FF"/>
</svg>
