<svg id="Calque_1" data-name="Calque 1" xmlns="http://www.w3.org/2000/svg" viewBox="0 0 23 23"><defs><style>.cls-1{fill:#c989dd;}</style></defs><path class="cls-1" d="M11.5,2.72A8.78,8.78,0,0,0,9.79,20.11a8.29,8.29,0,0,0,1.72.17,8.78,8.78,0,0,0,8.77-8.78A8.77,8.77,0,0,0,11.5,2.72ZM17.34,15.4A7,7,0,0,1,4.61,12.87a7,7,0,0,1,3-7.21,7,7,0,0,1,9.74,9.74Z"/><path class="cls-1" d="M13,6.6a3.41,3.41,0,0,0-1.53-.27A3.4,3.4,0,0,0,9.38,7a2.9,2.9,0,0,0-1.16,2,.75.75,0,0,0,.71.79.78.78,0,0,0,.82-.7,1.51,1.51,0,0,1,.6-.92,1.78,1.78,0,0,1,1.16-.35,2.2,2.2,0,0,1,.85.12c.89.42.89,1,.89,1.15,0,.71-.38,1-1.3,1.65a2.89,2.89,0,0,0-1.44,2.51.77.77,0,0,0,1.53,0,1.38,1.38,0,0,1,.77-1.24,3.42,3.42,0,0,0,2-2.92A2.78,2.78,0,0,0,13,6.6Z"/><path class="cls-1" d="M11.23,14.73a.9.9,0,1,0,.9.9A.9.9,0,0,0,11.23,14.73Z"/></svg>