<svg id="Calque_1" data-name="Calque 1" xmlns="http://www.w3.org/2000/svg" viewBox="0 0 23 23"><defs><style>.cls-1{fill:#c989dd;}</style></defs><path class="cls-1" d="M19.77,15.33h0l-.22-.26c-1-1.2-1.59-1.92-1.59-5.31,0-3.07-1.23-5.07-3.79-6.12a2.88,2.88,0,0,0-2.67-2.2A2.93,2.93,0,0,0,8.8,3.65C6.27,4.69,5,6.69,5,9.76c0,3.39-.6,4.11-1.59,5.31l-.22.26A1.6,1.6,0,0,0,3,17,1.68,1.68,0,0,0,4.56,18H7.91a3.59,3.59,0,1,0,7.18,0h3.35A1.68,1.68,0,0,0,20,17,1.6,1.6,0,0,0,19.77,15.33ZM13,19.49a2.19,2.19,0,0,1-3,0A2.13,2.13,0,0,1,9.34,18h4.32A2.13,2.13,0,0,1,13,19.49Zm5.66-3.08a.24.24,0,0,1-.24.12H4.56a.26.26,0,0,1-.24-.12.17.17,0,0,1,0-.17L4.56,16c1.07-1.29,1.92-2.31,1.92-6.22C6.48,6.57,8,5.53,9.35,5A1.51,1.51,0,0,0,10.21,4,1.47,1.47,0,0,1,11.5,2.88,1.47,1.47,0,0,1,12.79,4a1.51,1.51,0,0,0,.86.94c1.34.55,2.88,1.59,2.88,4.78,0,3.91.84,4.93,1.91,6.22l.22.26A.17.17,0,0,1,18.68,16.41Z"/></svg>